<svg xmlns="http://www.w3.org/2000/svg" viewBox="0 0 23.6 29.5"><defs><linearGradient id="paint0_linear_1523_1249" x1="0.380207" y1="12.5376" x2="17.5148" y2="32.0848" gradientUnits="userSpaceOnUse"><stop stop-color="#FDC066"/><stop offset="0.51" stop-color="#D8D3E9"/><stop offset="1" stop-color="#7BD1ED"/></linearGradient><linearGradient id="paint1_linear_1523_1249" x1="6.22847" y1="-2.4218" x2="23.3562" y2="17.1231" gradientUnits="userSpaceOnUse"><stop stop-color="#FDC066"/><stop offset="0.51" stop-color="#D8D3E9"/><stop offset="1" stop-color="#7BD1ED"/></linearGradient><clipPath id="clip0_1523_1249"><rect width="80" height="29.4948" fill="white"/></clipPath></defs><path d="M20.121 21.658C14.5515 21.0013 9.75863 17.4158 7.56726 12.2611C6.97966 10.8371 5.56944 9.83472 3.93571 9.83472C1.76277 9.83472 0 11.5975 0 13.7681C0 14.8534 0.437813 15.8397 1.15214 16.5494C2.87113 18.2684 2.87113 21.0635 1.15214 22.7825C0.444726 23.4899 0 24.4784 0 25.5637C0 27.7344 1.76277 29.4971 3.93341 29.4971C6.10404 29.4971 7.86681 27.7344 7.86681 25.5637C7.86681 24.4784 7.429 23.4922 6.71467 22.7825C5.44962 21.5174 5.11781 19.6694 5.71231 18.1025C10.3093 19.3376 14.1368 22.6166 16.0286 27.0707C16.6162 28.4948 18.0264 29.4971 19.6601 29.4971C21.8307 29.4971 23.5935 27.7344 23.5935 25.5637C23.5935 23.5452 22.0704 21.8861 20.1187 21.6603L20.121 21.658Z" fill="url(#paint0_linear_1523_1249)"/><path d="M22.4414 6.71467C23.1488 6.00726 23.5935 5.01872 23.5935 3.93341C23.5935 1.76277 21.8307 0 19.6601 0C17.4895 0 15.7267 1.76277 15.7267 3.93341C15.7267 5.01872 16.1645 6.00495 16.8789 6.71467C18.1439 7.97972 18.4757 9.82775 17.8812 11.3947C13.2842 10.1596 9.45677 6.88058 7.56495 2.42641C6.97736 1.00236 5.56944 0 3.93341 0C1.76277 0 0 1.76277 0 3.93341C0 5.95196 1.52313 7.61104 3.47485 7.83686C9.0443 8.48436 13.828 12.0721 16.0217 17.2268C16.6092 18.6508 18.0195 19.6532 19.6532 19.6532C21.8238 19.6532 23.5866 17.8904 23.5866 15.7198C23.5866 14.6345 23.1488 13.6483 22.4345 12.9385C20.7247 11.2288 20.7247 8.44058 22.4414 6.71467Z" fill="url(#paint1_linear_1523_1249)"/></svg>